<svg width="1265" height="1265" viewBox="0 0 1265 1265" fill="none" xmlns="http://www.w3.org/2000/svg">
<g opacity="0.1">
<g filter="url(#filter0_i_51_65)">
<circle cx="632.502" cy="632.501" r="632.501" fill="black"/>
</g>
<circle cx="632.502" cy="632.501" r="631.119" stroke="#E4FFD7" stroke-width="2.76458"/>
</g>
<path opacity="0.1" d="M632.502 1.38184C959.242 1.38212 1224.27 283.859 1224.27 632.501C1224.27 981.143 959.242 1263.62 632.502 1263.62C305.762 1263.62 40.7362 981.143 40.7362 632.501C40.7364 283.859 305.762 1.38184 632.502 1.38184Z" stroke="#E4FFD7" stroke-width="2.76458"/>
<path opacity="0.1" d="M1263.62 632.502C1263.62 959.242 981.144 1224.27 632.502 1224.27C283.859 1224.27 1.38281 959.242 1.38254 632.502C1.38256 305.762 283.859 40.7364 632.502 40.7364C981.144 40.7366 1263.62 305.762 1263.62 632.502Z" stroke="#E4FFD7" stroke-width="2.76458"/>
<path opacity="0.1" d="M632.501 1.38184C920.864 1.38184 1155.05 283.689 1155.05 632.501C1155.05 981.313 920.864 1263.62 632.501 1263.62C344.139 1263.62 109.954 981.313 109.954 632.501C109.955 283.689 344.139 1.38211 632.501 1.38184Z" stroke="#E4FFD7" stroke-width="2.76458"/>
<path opacity="0.1" d="M1263.62 632.501C1263.62 920.864 981.314 1155.05 632.502 1155.05C283.689 1155.05 1.38253 920.864 1.38255 632.501C1.38284 344.139 283.689 109.954 632.502 109.954C981.314 109.954 1263.62 344.139 1263.62 632.501Z" stroke="#E4FFD7" stroke-width="2.76458"/>
<path opacity="0.1" d="M632.502 1.38184C730.653 1.382 819.79 71.6783 884.467 185.937C949.12 300.153 989.153 458.035 989.153 632.501C989.153 806.968 949.12 964.85 884.467 1079.07C819.79 1193.32 730.653 1263.62 632.502 1263.62C534.35 1263.62 445.213 1193.32 380.536 1079.07C315.882 964.85 275.849 806.967 275.849 632.501C275.849 458.035 315.882 300.153 380.536 185.937C445.213 71.6782 534.35 1.38184 632.502 1.38184Z" stroke="#E4FFD7" stroke-width="2.76458"/>
<path opacity="0.1" d="M1263.62 632.502C1263.62 730.653 1193.32 819.789 1079.07 884.466C964.849 949.12 806.968 989.153 632.502 989.153C458.035 989.153 300.153 949.12 185.936 884.466C71.678 819.789 1.38271 730.653 1.38255 632.502C1.38256 534.35 71.6779 445.213 185.936 380.536C300.153 315.882 458.035 275.849 632.502 275.849C806.968 275.849 964.85 315.882 1079.07 380.536C1193.32 445.213 1263.62 534.35 1263.62 632.502Z" stroke="#E4FFD7" stroke-width="2.76458"/>
<path opacity="0.1" d="M632.502 1.38184C640.984 1.38198 649.411 5.55957 657.713 13.8291C666.02 22.1028 674.099 34.3779 681.836 50.3086C697.309 82.1644 711.281 128.35 723.029 185.533C746.519 299.877 761.059 457.905 761.059 632.501C761.059 807.097 746.519 965.125 723.029 1079.47C711.281 1136.65 697.309 1182.84 681.836 1214.69C674.099 1230.62 666.02 1242.9 657.713 1251.17C649.411 1259.44 640.984 1263.62 632.502 1263.62C624.021 1263.62 615.593 1259.44 607.291 1251.17C598.984 1242.9 590.905 1230.62 583.167 1214.69C567.695 1182.84 553.723 1136.65 541.975 1079.47C518.485 965.125 503.945 807.097 503.945 632.501C503.945 457.905 518.485 299.877 541.975 185.533C553.723 128.35 567.695 82.1644 583.167 50.3086C590.905 34.3779 598.984 22.1028 607.291 13.8291C615.593 5.5594 624.021 1.38184 632.502 1.38184Z" stroke="#E4FFD7" stroke-width="2.76458"/>
<path opacity="0.1" d="M1263.62 632.502C1263.62 640.983 1259.44 649.41 1251.17 657.713C1242.9 666.019 1230.62 674.098 1214.69 681.836C1182.84 697.308 1136.65 711.281 1079.47 723.028C965.125 746.519 807.098 761.058 632.502 761.058C457.906 761.058 299.878 746.518 185.534 723.028C128.351 711.28 82.1652 697.308 50.3093 681.836C34.3784 674.098 22.1036 666.019 13.8298 657.713C5.56006 649.41 1.38271 640.983 1.38256 632.502C1.38256 624.02 5.5599 615.592 13.8298 607.29C22.1036 598.983 34.3784 590.904 50.3093 583.167C82.1652 567.694 128.351 553.722 185.534 541.974C299.878 518.484 457.906 503.944 632.502 503.944C807.098 503.944 965.126 518.484 1079.47 541.974C1136.65 553.722 1182.84 567.694 1214.69 583.167C1230.62 590.904 1242.9 598.983 1251.17 607.29C1259.44 615.592 1263.62 624.02 1263.62 632.502Z" stroke="#E4FFD7" stroke-width="2.76458"/>
<defs>
<filter id="filter0_i_51_65" x="0.000488281" y="0" width="1265" height="1265" filterUnits="userSpaceOnUse" color-interpolation-filters="sRGB">
<feFlood flood-opacity="0" result="BackgroundImageFix"/>
<feBlend mode="normal" in="SourceGraphic" in2="BackgroundImageFix" result="shape"/>
<feColorMatrix in="SourceAlpha" type="matrix" values="0 0 0 0 0 0 0 0 0 0 0 0 0 0 0 0 0 0 127 0" result="hardAlpha"/>
<feOffset/>
<feGaussianBlur stdDeviation="164.766"/>
<feComposite in2="hardAlpha" operator="arithmetic" k2="-1" k3="1"/>
<feColorMatrix type="matrix" values="0 0 0 0 0.894118 0 0 0 0 1 0 0 0 0 0.843137 0 0 0 0.5 0"/>
<feBlend mode="normal" in2="shape" result="effect1_innerShadow_51_65"/>
</filter>
</defs>
</svg>
