<svg fill="none" height="53" viewBox="0 0 295 53" width="295" xmlns="http://www.w3.org/2000/svg" xmlns:xlink="http://www.w3.org/1999/xlink"><clipPath id="a"><path d="m.40625.693604h294.594v51.6128h-294.594z"/></clipPath><g clip-path="url(#a)"><path d="m36.7321 16.2659h1.6548l4.7163-4.7163.2317-2.00231c-2.7018-2.38467-5.9669-4.04121-9.4869-4.81315s-7.1786-.63379-10.6304.4014c-3.4517 1.03519-6.5826 2.93325-9.0968 5.51486-2.5143 2.5816-4.32886 5.7616-5.27241 9.2395.52541-.2153 1.10743-.2503 1.65481-.0993l9.4325-1.5555s.4799-.7943.7281-.7447c2.0211-2.2196 4.8142-3.5828 7.8075-3.8105 2.9933-.2276 5.9604.6975 8.2939 2.586z" fill="#ea4335"/><path d="m49.8218 19.8899c-1.0841-3.992-3.3098-7.5808-6.4042-10.32606l-6.6193 6.61926c1.3795 1.1272 2.4851 2.553 3.2333 4.1697.7482 1.6168 1.1194 3.3823 1.0858 5.1635v1.1749c.7736 0 1.5397.1524 2.2545.4485.7147.296 1.3641.73 1.9112 1.277.547.5471.981 1.1965 1.277 1.9112.2961.7148.4485 1.4809.4485 2.2545s-.1524 1.5397-.4485 2.2544c-.296.7148-.73 1.3642-1.277 1.9113-.5471.547-1.1965.981-1.9112 1.277-.7148.2961-1.4809.4485-2.2545.4485h-11.7823l-1.1749 1.1914v7.0661l1.1749 1.1749h11.7823c3.2902.0257 6.5012-1.0084 9.1581-2.9492s4.6186-4.6853 5.5948-7.8274c.9763-3.1421.9152-6.515-.1741-9.6197s-3.149-5.7764-5.8744-7.6198z" fill="#4285f4"/><path d="m17.5363 47.84h11.7824v-9.4325h-11.7824c-.8394-.0002-1.669-.1808-2.4326-.5296l-1.6548.513-4.74931 4.7163-.4137 1.6548c2.66331 2.0111 5.91311 3.0924 9.25041 3.078z" fill="#34a853"/><path d="m17.5363 17.2423c-3.1924.0191-6.2992 1.0347-8.88639 2.9052-2.58718 1.8704-4.52556 4.5022-5.54441 7.5278s-1.06728 6.2938-.13854 9.3482 2.78828 5.7425 5.3189 7.6888l6.83444-6.8344c-.8685-.3924-1.6289-.9896-2.2158-1.7405-.587-.7508-.983-1.6329-1.1541-2.5704-.1711-.9376-.1122-1.9026.1716-2.8124.2839-.9098.7842-1.7371 1.4581-2.411s1.5013-1.1743 2.411-1.4581c.9098-.2839 1.8749-.3428 2.8124-.1717.9376.1711 1.8196.5671 2.5705 1.1541.7508.5869 1.3481 1.3473 1.7405 2.2158l6.8344-6.8344c-1.4345-1.8753-3.2833-3.3934-5.402-4.4355-2.1186-1.0421-4.4496-1.5799-6.8106-1.5715z" fill="#fbbc05"/><path d="m87.9321 41.2537c-2.0286.0259-4.0415-.358-5.9182-1.1286s-3.5785-1.912-5.0036-3.3559c-1.47-1.3827-2.6365-3.0558-3.4256-4.9131-.7891-1.8574-1.1835-3.8585-1.1583-5.8764-.0242-2.0177.3707-4.0185 1.1597-5.8757.7891-1.8572 1.955-3.5304 3.4242-4.9137 1.4181-1.4589 3.1168-2.6156 4.9938-3.4006 1.877-.7849 3.8935-1.1818 5.928-1.1667 1.9385-.0258 3.8629.3339 5.6611 1.0583 1.7983.7245 3.4346 1.7991 4.8139 3.1615l-2.9456 2.9952c-2.0172-1.9494-4.7244-3.0205-7.5294-2.9787-1.455-.0178-2.8979.2672-4.2369.837-1.3389.5697-2.5447 1.4118-3.5408 2.4727-1.0351 1.0269-1.8517 2.2527-2.4006 3.6036s-.8187 2.7989-.7932 4.2568c-.0121 1.4413.2642 2.8704.8127 4.2033.5485 1.3328 1.3581 2.5425 2.3811 3.5578 2.0493 2.0422 4.8147 3.2039 7.7076 3.2379s5.6849-1.0624 7.7816-3.0559c1.298-1.4215 2.0944-3.2292 2.2671-5.1465h-9.929v-4.2363h14.0493c.138.8532.194 1.7177.166 2.5815.087 1.7879-.189 3.5749-.812 5.2531-.623 1.6781-1.5796 3.2125-2.8124 4.5104-1.3706 1.427-3.0266 2.5492-4.86 3.2934s-3.803 1.0936-5.7805 1.0256zm32.6659-2.8132c-1.885 1.8074-4.396 2.8165-7.008 2.8165s-5.123-1.0091-7.008-2.8165c-.939-.9099-1.678-2.0049-2.17-3.2157-.493-1.2107-.729-2.5106-.693-3.8173-.035-1.3065.201-2.6061.694-3.8167.493-1.2105 1.231-2.3057 2.169-3.2162 1.887-1.8036 4.397-2.8101 7.008-2.8101s5.121 1.0065 7.008 2.8101c.938.9105 1.676 2.0057 2.169 3.2162.493 1.2106.729 2.5102.694 3.8167.034 1.3079-.204 2.6086-.7 3.8194-.496 1.2107-1.238 2.3051-2.179 3.2136zm-10.922-2.7635c.502.5356 1.108.9625 1.781 1.2544s1.399.4425 2.133.4425 1.46-.1506 2.133-.4425 1.279-.7188 1.781-1.2544c.547-.5652.975-1.2341 1.259-1.9674.284-.7332.419-1.516.396-2.3021.024-.7887-.11-1.5743-.394-2.3104s-.713-1.4079-1.261-1.9755c-.508-.5301-1.119-.9519-1.794-1.2401s-1.402-.4367-2.136-.4367c-.735 0-1.462.1485-2.137.4367s-1.285.71-1.794 1.2401c-.548.5676-.977 1.2394-1.261 1.9755s-.418 1.5217-.393 2.3104c-.021.7873.116 1.5707.403 2.304.287.7334.718 1.4017 1.268 1.9655zm32.468 2.7635c-1.885 1.8074-4.396 2.8165-7.008 2.8165s-5.123-1.0091-7.008-2.8165c-.939-.9099-1.678-2.0049-2.171-3.2157-.493-1.2107-.728-2.5106-.692-3.8173-.035-1.3065.201-2.6061.694-3.8167.492-1.2105 1.231-2.3057 2.169-3.2162 1.885-1.8074 4.396-2.8165 7.008-2.8165s5.123 1.0091 7.008 2.8165c.938.9105 1.676 2.0057 2.169 3.2162.493 1.2106.729 2.5102.694 3.8167.036 1.3067-.2 2.6066-.693 3.8173-.492 1.2108-1.232 2.3058-2.17 3.2157zm-10.922-2.7635c.502.5356 1.108.9625 1.781 1.2544s1.399.4425 2.133.4425 1.46-.1506 2.133-.4425 1.279-.7188 1.781-1.2544c.546-.5652.974-1.2341 1.259-1.9674.284-.7332.418-1.516.395-2.3021.025-.7887-.109-1.5743-.393-2.3104-.285-.7361-.713-1.4079-1.261-1.9755-.509-.5301-1.119-.9519-1.794-1.2401-.676-.2882-1.402-.4367-2.137-.4367-.734 0-1.461.1485-2.136.4367-.676.2882-1.286.71-1.794 1.2401-.548.5676-.977 1.2394-1.261 1.9755s-.418 1.5217-.394 2.3104c-.021.7873.117 1.5707.404 2.304.287.7334.718 1.4017 1.268 1.9655zm25.087 14.4135c-1.983.0631-3.928-.5561-5.51-1.7541-1.405-1.056-2.511-2.4588-3.211-4.0709l3.773-1.5721c.411.9635 1.053 1.8105 1.87 2.4657.875.7049 1.972 1.0746 3.095 1.0425.712.0434 1.425-.0673 2.09-.3243s1.268-.6543 1.766-1.165c.997-1.2026 1.489-2.7447 1.373-4.3025v-1.4232h-.149c-.63.749-1.427 1.3408-2.326 1.7286s-1.876.5608-2.853.5054c-1.243.0038-2.473-.2502-3.612-.7458s-2.163-1.2221-3.008-2.1335c-.916-.9043-1.639-1.985-2.125-3.1768-.487-1.1918-.726-2.4699-.704-3.757-.023-1.2945.216-2.5804.702-3.7804s1.21-2.2894 2.127-3.2029c.842-.9153 1.866-1.6454 3.005-2.144 1.14-.4985 2.371-.7546 3.615-.7519 1.052-.0019 2.092.2299 3.044.6784.824.3598 1.559.8965 2.152 1.5721h.149v-1.5721h4.104v17.6239c.108 1.3941-.07 2.7957-.522 4.1188-.453 1.3231-1.171 2.54-2.11 3.5761-.894.8557-1.951 1.5235-3.108 1.9641-1.156.4405-2.39.6448-3.627.6009zm.298-12.709c.707.0155 1.408-.1247 2.055-.4107.646-.286 1.221-.7108 1.685-1.2442 1.021-1.17 1.559-2.6843 1.506-4.2363.061-1.5782-.477-3.1211-1.506-4.3191-.463-.5343-1.038-.9597-1.685-1.2457-.646-.2861-1.348-.4258-2.055-.4091-.726-.0149-1.447.1249-2.114.4103-.668.2853-1.267.7096-1.758 1.2445-1.095 1.1549-1.689 2.6951-1.655 4.286-.017.7803.121 1.5563.405 2.2833s.709 1.3907 1.25 1.953c.489.5402 1.087.97 1.754 1.2611.668.291 1.39.4365 2.118.4269zm16.366-25.6498v28.9263h-4.319v-28.9263zm11.849 29.522c-1.294.0333-2.58-.2009-3.779-.6878s-2.284-1.2161-3.188-2.1419c-.917-.919-1.638-2.0149-2.119-3.221-.481-1.2062-.711-2.4975-.678-3.7955-.049-1.3011.165-2.5988.629-3.8157.463-1.2168 1.167-2.3279 2.069-3.2669.85-.8961 1.878-1.6048 3.018-2.0807 1.139-.4759 2.366-.7085 3.601-.6828 1.136-.012 2.262.2076 3.31.6453.944.381 1.804.9432 2.532 1.6549.624.6033 1.18 1.2749 1.654 2.0023.384.6141.711 1.2622.977 1.9361l.447 1.1253-13.239 5.4444c.4.9199 1.07 1.6969 1.921 2.2287.851.5317 1.842.7932 2.845.75.975.0026 1.934-.2475 2.784-.7261.85-.4785 1.561-1.1691 2.064-2.0044l3.31 2.234c-.845 1.2084-1.925 2.233-3.177 3.0118-1.489.9405-3.221 1.4238-4.981 1.39zm-5.527-10.144 8.803-3.6572c-.271-.6448-.756-1.1766-1.373-1.5059-.691-.3902-1.474-.5901-2.267-.5791-1.347.0348-2.626.5998-3.558 1.572-.558.5341-.991 1.1848-1.269 1.9056-.277.7209-.392 1.4942-.336 2.2646zm36.621 10.144c-1.837.0317-3.661-.308-5.363-.9989-1.703-.6909-3.248-1.7187-4.543-3.0216s-2.314-2.854-2.994-4.5604c-.681-1.7063-1.01-3.5326-.967-5.3692-.043-1.8366.286-3.6629.967-5.3692.68-1.7064 1.699-3.2575 2.994-4.5604s2.84-2.3307 4.543-3.0216c1.702-.6909 3.526-1.0307 5.363-.9989 1.859-.0582 3.707.3046 5.407 1.0611 1.699.7565 3.205 1.8872 4.406 3.3076l-2.383 2.3167c-.882-1.1089-2.012-1.9941-3.301-2.5835-1.288-.5895-2.697-.8666-4.113-.8088-1.362-.0307-2.717.2144-3.982.7206-1.266.5061-2.416 1.263-3.381 2.2249-1.004 1.0095-1.789 2.2156-2.304 3.5427-.516 1.3271-.751 2.7464-.692 4.1688-.059 1.4224.176 2.8417.692 4.1688.515 1.327 1.3 2.5332 2.304 3.5427.965.9619 2.115 1.7187 3.381 2.2249 1.265.5062 2.62.7513 3.982.7206 1.582.0178 3.147-.3212 4.58-.9916 1.432-.6704 2.695-1.655 3.695-2.8806l2.383 2.3829c-1.248 1.492-2.815 2.6851-4.584 3.4917-1.908.8807-3.989 1.3218-6.09 1.2907zm17.078-.5957h-3.426v-26.7254h3.426zm5.593-16.0849c1.795-1.7825 4.222-2.783 6.752-2.783 2.529 0 4.956 1.0005 6.751 2.783.878.9268 1.564 2.0179 2.018 3.2107.455 1.1929.669 2.4637.63 3.7396.039 1.2758-.175 2.5467-.63 3.7395-.454 1.1928-1.14 2.284-2.018 3.2107-1.795 1.7826-4.222 2.783-6.751 2.783-2.53 0-4.957-1.0004-6.752-2.783-.878-.9267-1.564-2.0179-2.018-3.2107s-.668-2.4637-.63-3.7395c-.038-1.2759.176-2.5467.63-3.7396.454-1.1928 1.14-2.2839 2.018-3.2107zm2.548 11.7493c.54.5704 1.19 1.0247 1.912 1.3352.721.3105 1.498.4706 2.283.4706.786 0 1.563-.1601 2.284-.4706s1.372-.7648 1.911-1.3352c.599-.6425 1.064-1.3977 1.368-2.2216s.441-1.7.403-2.5774c.038-.8774-.099-1.7535-.403-2.5775-.304-.8239-.769-1.579-1.368-2.2215-.539-.5704-1.19-1.0247-1.911-1.3352s-1.498-.4707-2.284-.4707c-.785 0-1.562.1602-2.283.4707-.722.3105-1.372.7648-1.912 1.3352-.598.6425-1.063 1.3976-1.367 2.2215-.304.824-.441 1.7001-.403 2.5775-.034.8758.107 1.7495.414 2.5704.306.821.773 1.5729 1.373 2.212zm32.584 4.3356h-3.31v-2.5319h-.099c-.589.9617-1.423 1.7497-2.416 2.2837-1.031.5973-2.201.9113-3.393.9101-.967.0662-1.936-.087-2.836-.448s-1.706-.9206-2.36-1.637c-1.253-1.5856-1.883-3.5752-1.77-5.5933v-11.2528h3.425v10.6239c0 3.409 1.506 5.1134 4.518 5.1134.669.0209 1.333-.1184 1.938-.4062.604-.2879 1.131-.7159 1.537-1.2486.888-1.1252 1.361-2.5218 1.34-3.955v-10.1275h3.426zm11.633.5957c-1.162.0039-2.311-.2441-3.368-.7269s-1.997-1.1889-2.755-2.0697c-1.715-1.8949-2.634-4.3785-2.565-6.9337-.069-2.5553.85-5.0388 2.565-6.9337.758-.8808 1.698-1.5869 2.755-2.0697s2.206-.7308 3.368-.727c1.302-.0205 2.588.2868 3.74.8936 1.012.5094 1.87 1.2809 2.482 2.2341h.149l-.149-2.5319v-8.4562h3.426v26.7254h-3.31v-2.5319h-.149c-.613.9532-1.47 1.7247-2.482 2.234-1.142.6015-2.416.9086-3.707.8936zm.563-3.1276c.774.0113 1.542-.1422 2.252-.4504.711-.3081 1.347-.7638 1.868-1.3368 1.164-1.3249 1.759-3.0551 1.655-4.8155.104-1.7604-.491-3.4906-1.655-4.8155-.524-.5762-1.163-1.0365-1.875-1.3514-.712-.315-1.483-.4777-2.262-.4777s-1.549.1627-2.261.4777c-.713.3149-1.352.7752-1.876 1.3514-.578.6516-1.022 1.411-1.305 2.2345-.284.8235-.403 1.695-.35 2.5644-.053.8695.066 1.741.35 2.5645.283.8235.727 1.5828 1.305 2.2345.522.5833 1.163 1.0477 1.879 1.3617.717.3141 1.492.4705 2.275.4586z" fill="#ecedee"/></g></svg>