<svg display="block" fill="none" preserveAspectRatio="none" viewBox="0 0 47.8673 42.891" xmlns="http://www.w3.org/2000/svg"><path d="m25.9566 0h-4.0458c-1.8678 0-3.58 1.0358-4.4405 2.68627l-17.148742 32.88963c-.3981492.7636-.42806 1.6656-.081369 2.4537l1.419921 3.2278c.88358 2.0085 3.66553 2.2109 4.83292.3515l16.25587-25.8919c.2554-.4067.7031-.6537 1.1848-.6537s.9294.247 1.1847.6537l16.2559 25.8919c1.1674 1.8594 3.9494 1.657 4.8329-.3515l1.42-3.2278c.3466-.7881.3167-1.6901-.0814-2.4537l-17.1487-32.88963c-.8606-1.65047-2.5728-2.68627-4.4405-2.68627z" fill="#fff"/></svg>