<svg preserveAspectRatio="none" width="100%" height="100%" overflow="visible" style="display: block;" viewBox="0 0 53.3303 47.5831" fill="none" xmlns="http://www.w3.org/2000/svg">
<path id="Vector" d="M32.8704 0C56.3164 15.9525 48.7131 33.4848 48.7131 33.4848C48.7131 33.4848 55.3728 41.0002 52.6958 47.5831C52.6958 47.5831 49.931 42.9861 45.3449 42.9861C40.9125 42.9861 38.2903 47.5831 29.3376 47.5831C9.43543 47.5831 0 30.9504 0 30.9504C17.9383 42.7776 30.1934 34.3954 30.1934 34.3954C22.0965 29.7106 4.9152 7.28503 4.9152 7.28503C19.8912 20.0338 26.3534 23.3801 26.3534 23.3801C22.4695 20.1984 11.6407 4.608 11.6407 4.608C20.3081 13.3742 37.5333 25.5963 37.5333 25.5963C42.4704 12.0905 32.8704 0 32.8704 0Z" fill="var(--fill-0, white)"/>
</svg>
